<?xml version="1.0" encoding="UTF-8"?><svg id="_レイヤー_2" xmlns="http://www.w3.org/2000/svg" xmlns:xlink="http://www.w3.org/1999/xlink" viewBox="0 0 490.2 44.59"><defs><style>.cls-1{fill:none;}.cls-2{fill:url(#NETBK_ブルーグラデーションCMYK);}.cls-3{clip-path:url(#clippath);}.cls-4{fill:#0058a1;}.cls-5{fill:#fff;}.cls-6{fill:url(#NEOBK_ブルーグラデーションCMYK);}.cls-7{clip-path:url(#clippath-1);}</style><clipPath id="clippath"><path class="cls-1" d="m15.3,28.45c0-4.85-2.04-9.22-5.31-12.3L34.6,3.85c-3.27,3.08-5.3,7.45-5.3,12.3s2.04,9.22,5.31,12.3l-24.61,12.31c3.27-3.08,5.31-7.46,5.31-12.31M0,22.3C0,34.61,9.98,44.59,22.3,44.59s22.3-9.98,22.3-22.3S34.61,0,22.3,0,0,9.98,0,22.3"/></clipPath><linearGradient id="NETBK_ブルーグラデーションCMYK" x1="4344.41" y1="8106.93" x2="4344.84" y2="8106.93" gradientTransform="translate(-842634.29 -451569.99) rotate(90) scale(103.94 -103.94)" gradientUnits="userSpaceOnUse"><stop offset="0" stop-color="#008bd5"/><stop offset="1" stop-color="#0058a1"/></linearGradient><clipPath id="clippath-1"><path class="cls-1" d="m92.31,5.69v33.21h-4.48l-20.22-22.21v22.21h-6.47V5.69h4.48l20.22,22.16V5.69h6.47Zm11.91,0v33.21h18.42v-5.58h-11.95v-9.06h11.45v-5.58h-11.45v-7.42h11.95v-5.58h-18.42Zm35.38,16.63c0,6.72,4.58,11.45,11.05,11.45s11.05-4.73,11.05-11.45-4.58-11.5-11.05-11.5-11.05,4.78-11.05,11.5m-6.67,0c0-10.11,7.27-17.38,17.73-17.38s17.73,7.27,17.73,17.38-7.27,17.33-17.73,17.33-17.73-7.22-17.73-17.33"/></clipPath><linearGradient id="NEOBK_ブルーグラデーションCMYK" x1="114.76" y1="4.94" x2="114.76" y2="39.65" gradientUnits="userSpaceOnUse"><stop offset="0" stop-color="#0080cb"/><stop offset=".81" stop-color="#0058a1"/></linearGradient></defs><g id="_レイヤー_1-2"><circle class="cls-5" cx="22.3" cy="22.3" r="22.3"/><g class="cls-3"><rect class="cls-2" y="0" width="44.59" height="44.59"/></g><path class="cls-4" d="m191.72,21.28c2.19-1.34,3.88-3.68,3.88-7.27,0-4.98-3.39-8.32-9.16-8.32h-7.27v33.21h9.11c6.03,0,10.31-3.49,10.31-9.31,0-4.28-2.54-7.62-6.87-8.32Zm-10.36-13.59h4.23c1.74,0,3.88.1,5.53,1.39,1.1.9,2.24,2.54,2.24,5.18,0,2.29-.85,3.98-2.19,5.08-1.44,1.19-2.84,1.39-4.53,1.39h-5.28V7.68Zm12.8,27.24c-2.24,1.99-4.98,1.99-7.22,1.99h-5.58v-14.19h5.18c3.68,0,5.33.55,6.22.95,2.49,1.15,3.54,3.19,3.54,6.17,0,1.54-.35,3.49-2.14,5.08Z"/><path class="cls-4" d="m205.62,38.9h2.39l4.43-10.9h14.14l4.43,10.9h2.39l-13.79-34.21-13.99,34.21Zm7.62-12.9l6.32-15.73,6.22,15.73h-12.55Z"/><polygon class="cls-4" points="265.82 34.11 242.01 4.94 242.01 38.9 244.21 38.9 244.21 10.98 268.01 40.16 268.01 5.69 265.82 5.69 265.82 34.11"/><polygon class="cls-4" points="300.69 5.69 297.8 5.69 282.12 21.33 282.12 5.69 279.92 5.69 279.92 38.9 282.12 38.9 282.12 23.92 283.01 23.07 298.65 38.9 301.63 38.9 284.61 21.58 300.69 5.69"/><g class="cls-7"><rect class="cls-6" x="61.14" y="4.94" width="107.25" height="34.71"/></g><polygon class="cls-4" points="326.18 23.55 326.18 24.52 330.91 24.52 330.91 29.89 326.76 29.89 326.76 30.86 330.91 30.86 330.91 37.16 325.73 37.16 325.73 38.13 339.11 38.13 339.11 37.16 333.77 37.16 333.77 30.86 337.92 30.86 337.92 29.89 333.77 29.89 333.77 24.52 338.55 24.52 338.55 23.55 326.18 23.55"/><path class="cls-4" d="m438.54,20.63h-2.9v17.5h2.9v-9.68c2.39,1.19,4.76,2.82,6.59,4.38l1.95-2.45c-1.8-1.15-5.22-2.66-8.53-3.56v-6.18Z"/><rect class="cls-4" x="347.21" y="23.55" width="12.63" height=".97"/><rect class="cls-4" x="348.83" y="20.31" width="9.12" height=".97"/><rect class="cls-4" x="348.83" y="26.58" width="9.12" height=".97"/><rect class="cls-4" x="348.83" y="29.35" width="9.12" height=".97"/><path class="cls-4" d="m335.34,21.52c-1.51-.9-3.53-1.56-5.61-2.06l-1.23.52c1.48.97,3,2.23,4.04,3.26l2.79-1.71Z"/><path class="cls-4" d="m386.45,28.95c2.07-.5,3.42-1.89,3.42-3.83,0-2.81-2.34-4.46-6.52-4.46h-5.8v17.47h5.8c5.54,0,7.31-1.97,7.31-5,0-2.15-1.5-3.72-4.21-4.19m-5.77-7.27h2.45c2.25,0,3.61,1.37,3.61,3.44,0,1.83-1.63,3.35-3.9,3.35h-2.17v-6.79Zm2.61,15.38h-2.61v-7.57h2.17c2.85,0,4.69,1.56,4.69,3.76s-1.61,3.81-4.24,3.81"/><rect class="cls-4" x="393.75" y="20.66" width="3.13" height="17.47"/><path class="cls-4" d="m419.85,25.6l-1.67.42c.8,1.46,1.54,3.45,2,4.98l2.32-.91c-.62-1.68-1.61-3.29-2.66-4.49"/><path class="cls-4" d="m426.26,29.1c-.57-1.69-1.53-3.33-2.54-4.56l-1.68.38c.76,1.48,1.46,3.49,1.89,5.02l2.34-.85Z"/><path class="cls-4" d="m421.93,36.21l1.27,1.22c5.05-2.36,7.64-5.63,8.8-11.56l-2.68-.71c-1.15,5.85-2.9,8.95-7.38,11.05"/><path class="cls-4" d="m478.18,21.17l-2.48-1.02c-1.26,1.75-3,3.51-4.76,4.45l.53,1.22c2.4-.69,5.26-2.66,6.7-4.64"/><path class="cls-4" d="m470.95,29.92l.56,1.06c.65-.26,1.33-.64,2.01-1.08v8.23h2.9v-10.61c.66-.69,1.23-1.41,1.6-2.09l-2.54-.8c-1.15,2.08-2.84,4.11-4.54,5.29"/><rect class="cls-4" x="478.85" y="20.31" width="10.91" height="1.09"/><path class="cls-4" d="m478.52,25.92v1.09h6.33v9.53c0,.47-.2.63-.53.63h-1.77v.97h2.92c1.68,0,2.29-.64,2.29-2.08v-9.05h2.44v-1.09h-11.68Z"/><path class="cls-4" d="m365.05,24.4c0-1.75,1.24-3.05,3.12-3.05s3.15,1.5,3.28,3.49h3.01c0-2.73-2.5-4.54-6.29-4.54s-6.12,2.16-6.12,4.76c0,5.6,9.62,4.87,9.62,9.17,0,2.05-1.27,3.29-3.34,3.28-2.06,0-3.73-1.36-3.87-3.71h-2.97c0,2.99,2.83,4.75,6.84,4.75s6.34-1.97,6.34-4.88c0-5.75-9.62-5.15-9.62-9.28"/><path class="cls-4" d="m350.75,33.18h5.28v3.99h-5.28v-3.99Zm5.28-.95h-8.07v5.9h10.86v-5.9h-2.79Z"/><path class="cls-4" d="m415.06,24.48v-.97h-5.38v-2.87h-2.9v2.87h-5.13v.99h9.37c-3.33,3.96-6.99,7.08-11.01,8.86l.53,1.18c2.12-.74,4.22-1.75,6.24-2.99v6.6h2.9v-7.11c1.97,1.1,3.92,2.65,5.65,4.34l2.02-2.06c-2.38-1.7-4.77-2.97-7.38-3.99,1.83-1.43,3.55-3.05,5.08-4.84"/><path class="cls-4" d="m455.05,34.48h1.2c.59-1.07,1.15-2.68,1.37-3.95l-1.94-.14c-.07,1.26-.34,2.96-.64,4.09"/><path class="cls-4" d="m452.23,34.48c-.28-1.26-.92-2.87-1.55-3.92l-1.19.08c.34,1.08.65,2.6.77,3.84h1.97Z"/><path class="cls-4" d="m326.84,20.49l-3.1-.34c-1.39,3.73-2.9,7.09-4.93,10.26l1.24.63c.59-.69,1.15-1.39,1.68-2.1v9.19h2.91v-13.57c.77-1.31,1.5-2.67,2.2-4.07"/><path class="cls-4" d="m347.81,20.49l-3.08-.34c-1.39,3.31-2.89,6.29-4.93,9.09l1.24.56c.6-.62,1.16-1.25,1.7-1.89v10.22h2.86v-14.04c.77-1.16,1.5-2.36,2.2-3.6"/><path class="cls-4" d="m468.99,31.31l-2.14-1.52c-.58.75-1.47,1.58-2.24,2.23-.35-.87-.61-1.81-.77-2.84h3.98v-8.87h-9.67v3.71c-1.11-1.12-2.15-2.57-2.87-3.87h-2.86c-1.04,2.16-2.13,3.7-3.56,4.88l.64.69c1.55-.72,3.34-2.03,5.06-3.83.36,1.07.92,2.28,1.34,2.97l2.25-.44v13.72c2.13-.51,4.02-1.25,5.45-1.99v-1.01c-.83.3-1.78.52-2.82.7v-6.66h.15c.67,3.78,3.26,7.5,7.36,8.96l.7-.96c-1.42-.88-2.58-1.99-3.45-3.35,1.21-.63,2.72-1.7,3.45-2.51m-8.21-10.03h4.33v2.98h-4.33v-2.98Zm0,3.95h4.33v2.98h-4.33v-2.98Z"/><path class="cls-4" d="m454.82,29.46h2.66v-.97h-2.66v-2.14h2.19v-.97h-6.09v.97h1.53v2.14h-2.55v.97h2.55v6.37c-.93.12-1.86.2-2.7.24l.82,2.06c2.55-.49,5.07-1.37,6.93-2.31v-1.01c-.78.23-1.7.45-2.68.63v-5.99Z"/></g></svg>